<svg xmlns="http://www.w3.org/2000/svg" viewBox="0 0 1280 800" width="1280" height="800">
  <defs>
    <style>
      .text-primary { fill: rgba(255,255,255,0.90); font-family: Outfit, system-ui, sans-serif; }
      .text-secondary { fill: rgba(255,255,255,0.60); font-family: Outfit, system-ui, sans-serif; }
      .text-muted { fill: rgba(255,255,255,0.40); font-family: Outfit, system-ui, sans-serif; }
      .text-very-muted { fill: rgba(255,255,255,0.30); font-family: Outfit, system-ui, sans-serif; }
      .text-accent { fill: #7DDFBE; font-family: Outfit, system-ui, sans-serif; }
    </style>
    <linearGradient id="prism-bg" x1="0" y1="0" x2="1" y2="1" gradientTransform="rotate(0)">
      <stop offset="0" stop-color="#4A5D6B"/>
      <stop offset="0.40" stop-color="#5A4A5E"/>
      <stop offset="0.70" stop-color="#6B5A5A"/>
      <stop offset="1.00" stop-color="#4A6058"/>
    </linearGradient>
    <radialGradient id="orb-lavender" cx="0.5" cy="0.5" r="0.5">
      <stop offset="0" stop-color="rgba(180,160,210,0.25)"/>
      <stop offset="0.7" stop-color="rgba(180,160,210,0)"/>
    </radialGradient>
    <radialGradient id="orb-teal" cx="0.5" cy="0.5" r="0.5">
      <stop offset="0" stop-color="rgba(130,200,180,0.20)"/>
      <stop offset="0.7" stop-color="rgba(130,200,180,0)"/>
    </radialGradient>
  </defs>
  <!-- DASHBOARD-DEFAULT -->

  <!-- Gradient page background -->
  <rect x="0" y="0" width="1280" height="800" fill="url(#prism-bg)"/>

  <!-- Ambient orbs: top-right lavender, bottom-left teal -->
  <circle cx="1220" cy="-20" r="260" fill="url(#orb-lavender)"/>
  <circle cx="80" cy="780" r="220" fill="url(#orb-teal)"/>

  <!-- ════════════ SIDEBAR ════════════ -->

  <!-- Brand -->
  <text x="14" y="36" class="text-primary" font-size="16" font-weight="500" letter-spacing="-0.32">Prism</text>

  <!-- Search -->
  <rect x="14" y="54" width="252" height="32" fill="rgba(255,255,255,0.08)" stroke="rgba(255,255,255,0.12)" stroke-width="1" rx="10" ry="10"/>
  <text x="26" y="74" class="text-muted" font-size="12">⌕  Search...</text>

  <!-- Selected list item -->
  <rect x="6" y="106" width="268" height="56" fill="rgba(255,255,255,0.14)" stroke="rgba(255,255,255,0.12)" stroke-width="1" rx="12" ry="12"/>
  <rect x="20" y="115" width="34" height="34" fill="rgba(255,255,255,0.08)" stroke="rgba(255,255,255,0.12)" stroke-width="1" rx="10" ry="10"/>
  <text x="37" y="138" class="text-primary" font-size="15" font-weight="500" text-anchor="middle">T</text>
  <circle cx="52" cy="147" r="4" fill="#7DDFBE" stroke="rgba(74,93,107,0.8)" stroke-width="2"/>
  <text x="64" y="129" class="text-primary" font-size="12.5" font-weight="500">Tokyo Trip</text>
  <text x="260" y="129" class="text-very-muted" font-size="10" text-anchor="end">2m</text>
  <text x="64" y="146" class="text-muted" font-size="11">Build itinerary?</text>
  <rect x="238" y="138" width="18" height="18" fill="rgba(125,223,190,0.25)" stroke="rgba(125,223,190,0.40)" stroke-width="1" rx="6" ry="6"/>
  <text x="247" y="151" class="text-accent" font-size="9" font-weight="600" text-anchor="middle">2</text>

  <!-- More list items (compact) -->
  <rect x="14" y="180" width="34" height="34" fill="rgba(255,255,255,0.08)" stroke="rgba(255,255,255,0.12)" stroke-width="1" rx="10" ry="10"/>
  <text x="31" y="203" class="text-primary" font-size="15" font-weight="500" text-anchor="middle">R</text>
  <text x="58" y="194" class="text-primary" font-size="12.5" font-weight="500">Recipe Ideas</text>
  <text x="266" y="194" class="text-very-muted" font-size="10" text-anchor="end">1h</text>

  <rect x="14" y="242" width="34" height="34" fill="rgba(255,255,255,0.08)" stroke="rgba(255,255,255,0.12)" stroke-width="1" rx="10" ry="10"/>
  <text x="31" y="265" class="text-primary" font-size="15" font-weight="500" text-anchor="middle">B</text>
  <circle cx="46" cy="274" r="4" fill="#7DDFBE" stroke="rgba(74,93,107,0.8)" stroke-width="2"/>
  <text x="58" y="256" class="text-primary" font-size="12.5" font-weight="500">Book Club</text>
  <text x="266" y="256" class="text-very-muted" font-size="10" text-anchor="end">3h</text>

  <!-- Account footer -->
  <line x1="0" y1="744" x2="280" y2="744" stroke="rgba(255,255,255,0.08)" stroke-width="1"/>
  <rect x="14" y="754" width="28" height="28" fill="rgba(255,255,255,0.08)" stroke="rgba(255,255,255,0.12)" stroke-width="1" rx="8" ry="8"/>
  <text x="28" y="773" class="text-secondary" font-size="12" text-anchor="middle">◈</text>
  <text x="50" y="773" class="text-secondary" font-size="11">You · active</text>

  <!-- ════════════ MAIN CONTENT ════════════ -->

  <!-- Header panel -->
  <rect x="312" y="14" width="952" height="56" fill="rgba(255,255,255,0.08)" stroke="rgba(255,255,255,0.12)" stroke-width="1" rx="14" ry="14"/>
  <text x="328" y="46" class="text-primary" font-size="16" font-weight="700">T</text>
  <text x="354" y="44" class="text-primary" font-size="13.5" font-weight="500">Tokyo Trip</text>
  <text x="354" y="60" class="text-muted" font-size="10">active session</text>

  <!-- Message 1 — USER (right, 0.18 opacity) -->
  <path d="M 780,108
           L 1240,108
           Q 1252,108 1252,120
           L 1252,140
           Q 1252,152 1240,152
           L 800,152
           Q 788,152 788,140
           L 788,116
           Q 788,108 800,108 Z"
        fill="rgba(255,255,255,0.18)" stroke="rgba(255,255,255,0.12)" stroke-width="1"/>
  <text x="800" y="135" class="text-primary" font-size="13">Hey, can you plan my Tokyo trip?</text>

  <!-- Message 2 — AI (left, 0.08 opacity) -->
  <path d="M 320,180
           L 940,180
           Q 952,180 952,192
           L 952,238
           Q 952,250 940,250
           L 332,250
           Q 320,250 320,238
           L 320,184
           Q 320,180 320,180 Z"
        fill="rgba(255,255,255,0.08)" stroke="rgba(255,255,255,0.12)" stroke-width="1"/>
  <text x="338" y="208" class="text-secondary" font-size="13">Absolutely! Tokyo is incredible. I'd suggest</text>
  <text x="338" y="232" class="text-secondary" font-size="13">starting with Asakusa temples.</text>

  <!-- Message 3 — USER -->
  <path d="M 836,278
           L 1240,278
           Q 1252,278 1252,290
           L 1252,310
           Q 1252,322 1240,322
           L 856,322
           Q 844,322 844,310
           L 844,286
           Q 844,278 856,278 Z"
        fill="rgba(255,255,255,0.18)" stroke="rgba(255,255,255,0.12)" stroke-width="1"/>
  <text x="856" y="305" class="text-primary" font-size="13">Perfect! Temples + food.</text>

  <!-- Composer panel -->
  <rect x="320" y="724" width="908" height="44" fill="rgba(255,255,255,0.08)" stroke="rgba(255,255,255,0.12)" stroke-width="1" rx="14" ry="14"/>
  <text x="338" y="751" class="text-muted" font-size="13">Message...</text>
  <rect x="1234" y="730" width="32" height="32" fill="rgba(255,255,255,0.08)" stroke="rgba(255,255,255,0.12)" stroke-width="1" rx="10" ry="10"/>
  <text x="1250" y="751" class="text-secondary" font-size="14" text-anchor="middle">↑</text>

  <!-- Vertical divider -->
  <line x1="280" y1="0" x2="280" y2="800" stroke="rgba(255,255,255,0.10)" stroke-width="1"/>

</svg>
