<svg xmlns="http://www.w3.org/2000/svg" viewBox="0 0 960 320" width="960" height="320">
  <defs>
    <style>
      .text-primary { fill: #212121; font-family: -apple-system, BlinkMacSystemFont, 'Segoe UI', sans-serif; }
      .text-secondary { fill: #757575; font-family: -apple-system, BlinkMacSystemFont, 'Segoe UI', sans-serif; }
      .text-disabled { fill: #BDBDBD; font-family: -apple-system, BlinkMacSystemFont, 'Segoe UI', sans-serif; }
      .text-inverse { fill: #FFFFFF; font-family: -apple-system, BlinkMacSystemFont, 'Segoe UI', sans-serif; }
      .text-danger { fill: #B71C1C; font-family: -apple-system, BlinkMacSystemFont, 'Segoe UI', sans-serif; }
      .text-success { fill: #2E7D32; font-family: -apple-system, BlinkMacSystemFont, 'Segoe UI', sans-serif; }
      .text-warning { fill: #E65100; font-family: -apple-system, BlinkMacSystemFont, 'Segoe UI', sans-serif; }
      .text-info { fill: #1565C0; font-family: -apple-system, BlinkMacSystemFont, 'Segoe UI', sans-serif; }
    </style>
  </defs>
  <!-- ==================== DATA-TABLE-WITH-ACTIONS ==================== -->

  <rect width="960" height="320" fill="#FFFFFF"/>

  <text x="16" y="26" class="text-secondary" font-size="11" font-weight="600" letter-spacing="0.5">NAME</text>
  <text x="280" y="26" class="text-secondary" font-size="11" font-weight="600" letter-spacing="0.5">EMAIL</text>
  <text x="600" y="26" class="text-secondary" font-size="11" font-weight="600" letter-spacing="0.5">ROLE</text>
  <text x="800" y="26" class="text-secondary" font-size="11" font-weight="600" letter-spacing="0.5">STATUS</text>
  <line x1="0" y1="40" x2="960" y2="40" stroke="#757575" stroke-width="1.5"/>

  <text x="16" y="68" class="text-primary" font-size="13">Alex Rivera</text>
  <text x="280" y="68" class="text-primary" font-size="13">alex@northwind.com</text>
  <text x="600" y="68" class="text-secondary" font-size="13">Administrator</text>
  <text x="800" y="68" class="text-success" font-size="13" font-weight="500">Active</text>
  <circle cx="932" cy="64" r="2" fill="#757575"/>
  <circle cx="940" cy="64" r="2" fill="#757575"/>
  <circle cx="948" cy="64" r="2" fill="#757575"/>
  <line x1="0" y1="80" x2="960" y2="80" stroke="#E0E0E0" stroke-width="1"/>

  <text x="16" y="108" class="text-primary" font-size="13">Jordan Chen</text>
  <text x="280" y="108" class="text-primary" font-size="13">jordan@northwind.com</text>
  <text x="600" y="108" class="text-secondary" font-size="13">Editor</text>
  <text x="800" y="108" class="text-success" font-size="13" font-weight="500">Active</text>
  <circle cx="932" cy="104" r="2" fill="#757575"/>
  <circle cx="940" cy="104" r="2" fill="#757575"/>
  <circle cx="948" cy="104" r="2" fill="#757575"/>
  <line x1="0" y1="120" x2="960" y2="120" stroke="#E0E0E0" stroke-width="1"/>

  <text x="16" y="148" class="text-primary" font-size="13">Sam Okafor</text>
  <text x="280" y="148" class="text-primary" font-size="13">sam@northwind.com</text>
  <text x="600" y="148" class="text-secondary" font-size="13">Editor</text>
  <text x="800" y="148" class="text-warning" font-size="13" font-weight="500">Pending</text>
  <circle cx="932" cy="144" r="2" fill="#757575"/>
  <circle cx="940" cy="144" r="2" fill="#757575"/>
  <circle cx="948" cy="144" r="2" fill="#757575"/>
  <line x1="0" y1="160" x2="960" y2="160" stroke="#E0E0E0" stroke-width="1"/>

  <text x="16" y="188" class="text-primary" font-size="13">Taylor Kim</text>
  <text x="280" y="188" class="text-primary" font-size="13">taylor@northwind.com</text>
  <text x="600" y="188" class="text-secondary" font-size="13">Viewer</text>
  <text x="800" y="188" class="text-secondary" font-size="13">Inactive</text>
  <circle cx="932" cy="184" r="2" fill="#757575"/>
  <circle cx="940" cy="184" r="2" fill="#757575"/>
  <circle cx="948" cy="184" r="2" fill="#757575"/>
  <line x1="0" y1="200" x2="960" y2="200" stroke="#E0E0E0" stroke-width="1"/>

</svg>
